<svg width="16" height="21" viewBox="0 0 16 21" fill="none" xmlns="http://www.w3.org/2000/svg">
<path d="M14.5455 8.35291C14.5455 6.61694 13.8558 4.95208 12.6283 3.72457C11.4008 2.49706 9.73596 1.80745 8 1.80745C6.26404 1.80745 4.59918 2.49706 3.37166 3.72457C2.14415 4.95208 1.45455 6.61694 1.45455 8.35291C1.45455 11.038 3.60291 14.5376 8 18.7296C12.3971 14.5376 14.5455 11.038 14.5455 8.35291ZM8 20.7165C2.66618 15.8685 0 11.7464 0 8.35291C0 6.23117 0.842855 4.19634 2.34315 2.69605C3.84344 1.19576 5.87827 0.352905 8 0.352905C10.1217 0.352905 12.1566 1.19576 13.6569 2.69605C15.1571 4.19634 16 6.23117 16 8.35291C16 11.7464 13.3338 15.8685 8 20.7165Z" fill="#000103" fill-opacity="0.7"/>
<path d="M7.99995 10.5347C8.5786 10.5347 9.13356 10.3048 9.54273 9.89563C9.9519 9.48646 10.1818 8.93151 10.1818 8.35286C10.1818 7.7742 9.9519 7.21925 9.54273 6.81008C9.13356 6.40091 8.5786 6.17104 7.99995 6.17104C7.4213 6.17104 6.86634 6.40091 6.45717 6.81008C6.048 7.21925 5.81813 7.7742 5.81813 8.35286C5.81813 8.93151 6.048 9.48646 6.45717 9.89563C6.86634 10.3048 7.4213 10.5347 7.99995 10.5347V10.5347ZM7.99995 11.9892C7.03553 11.9892 6.1106 11.6061 5.42865 10.9242C4.7467 10.2422 4.36359 9.31728 4.36359 8.35286C4.36359 7.38843 4.7467 6.46351 5.42865 5.78156C6.1106 5.09961 7.03553 4.71649 7.99995 4.71649C8.96437 4.71649 9.8893 5.09961 10.5712 5.78156C11.2532 6.46351 11.6363 7.38843 11.6363 8.35286C11.6363 9.31728 11.2532 10.2422 10.5712 10.9242C9.8893 11.6061 8.96437 11.9892 7.99995 11.9892Z" fill="#000103" fill-opacity="0.7"/>
</svg>
